<svg width="136" height="32" viewBox="0 0 136 32" fill="none" xmlns="http://www.w3.org/2000/svg">
<path d="M44.6815 31.5733V0H36.4333L19.187 24.3627L16.2759 20.8213C21.4806 20.0533 24.3918 15.616 24.3918 10.88C24.3918 6.35733 21.8335 2.56 18.3931 1.10933C16.6729 0.384 14.1146 0 10.7183 0H0V31.5733H7.98357V21.376H8.07178L15.6143 31.5733H24.0389L26.9059 27.008H36.3451V31.5733H44.6815ZM7.98357 15.872V7.08267H11.1594C14.291 7.08267 16.4082 8.61867 16.4082 11.3493C16.4082 14.2507 14.4234 15.872 11.1152 15.872H7.98357ZM36.3451 20.608H30.8757L36.2569 11.8613H36.3451V20.608Z" fill="#8877FF"/>
<path d="M78.1357 31.5733V0H70.1521L70.505 19.968L57.8018 0H50.6122V31.5733H58.5958L58.3752 12.288L70.9019 31.5733H78.1357Z" fill="#8877FF"/>
<path d="M102.21 31.5733V24.4907H92.0646V19.072H101.901V11.9893H92.0646V7.08267H102.21V0H84.0811V31.5733H102.21Z" fill="#8877FF"/>
<path d="M135.349 31.5733L123.836 15.744L134.643 0H125.91L116.691 14.208H116.603V0H108.266V31.5733H116.603V17.92H116.691L125.601 31.5733H135.349Z" fill="#8877FF"/>
</svg>