<svg width="152" height="39" viewBox="0 0 152 39" fill="none" xmlns="http://www.w3.org/2000/svg">
<path fill-rule="evenodd" clip-rule="evenodd" d="M23.024 16.8501H25.741C28.549 16.8501 30.066 20.1421 28.237 22.2751L25.577 25.3751C25.865 27.2137 26.836 28.876 28.296 30.0301C29.7573 31.1845 31.5997 31.7463 33.4565 31.6036C35.3133 31.4609 37.0483 30.6242 38.316 29.2601C39.5831 27.8963 40.2887 26.1046 40.292 24.2431C40.2915 23.9192 40.3549 23.5984 40.4787 23.2991C40.6024 22.9998 40.7841 22.7278 41.0132 22.4989C41.2424 22.27 41.5144 22.0885 41.8138 21.965C42.1133 21.8415 42.4341 21.7783 42.758 21.7791C43.4117 21.7794 44.0386 22.0389 44.5011 22.5009C44.9636 22.9628 45.2239 23.5894 45.225 24.2431C45.2246 26.5022 44.6025 28.7176 43.4269 30.6467C42.2513 32.5758 40.5676 34.1442 38.56 35.1801C35.9686 36.5191 32.9868 36.8975 30.143 36.2485C27.2992 35.5995 24.7769 33.9648 23.023 31.6341C21.8605 33.1792 20.3515 34.4297 18.6173 35.2849C16.8832 36.1401 14.9725 36.5761 13.039 36.5578C11.1056 36.5395 9.20345 36.0674 7.48581 35.1796C5.76817 34.2917 4.28304 33.0129 3.15001 31.4461C1.636 29.3495 0.820773 26.8292 0.820008 24.2431C0.819874 23.919 0.883723 23.5981 1.00789 23.2988C1.13206 22.9994 1.3141 22.7275 1.54358 22.4987C1.77306 22.2699 2.04546 22.0886 2.34515 21.9653C2.64485 21.842 2.96594 21.779 3.29001 21.7801C3.9437 21.7804 4.57058 22.0399 5.03309 22.5019C5.4956 22.9638 5.75595 23.5904 5.75701 24.2441C5.75413 25.8716 6.28878 27.4544 7.27792 28.7468C8.26705 30.0392 9.6553 30.9688 11.227 31.3911C12.232 31.6623 13.2828 31.7186 14.311 31.5562C15.3392 31.3938 16.3216 31.0165 17.1941 30.4488C18.0666 29.8811 18.8095 29.1358 19.3745 28.2616C19.9395 27.3873 20.3138 26.4038 20.473 25.3751L17.811 22.2751C15.983 20.1431 17.499 16.8521 20.311 16.8521H23.025L23.024 16.8501Z" fill="#8877FF"/>
<path d="M34.535 10.28C35.3458 10.2804 36.1442 10.0809 36.8595 9.699C37.5747 9.31713 38.1848 8.76474 38.6355 8.09078C39.0863 7.41681 39.3639 6.64207 39.4437 5.83519C39.5235 5.02831 39.403 4.21421 39.093 3.465C38.7191 2.56428 38.0865 1.79467 37.2752 1.25354C36.4638 0.712417 35.5102 0.424077 34.535 0.425001C33.7244 0.424806 32.9263 0.624491 32.2112 1.00637C31.4962 1.38826 30.8864 1.94056 30.4358 2.61436C29.9852 3.28817 29.7077 4.0627 29.6278 4.86936C29.548 5.67602 29.6682 6.48992 29.978 7.239C30.3516 8.13983 30.9839 8.90961 31.7951 9.45093C32.6063 9.99225 33.5598 10.2808 34.535 10.28ZM11.512 10.28C12.3227 10.2803 13.121 10.0806 13.8361 9.69865C14.5513 9.31671 15.1612 8.7643 15.6118 8.09036C16.0625 7.41642 16.34 6.64174 16.4197 5.83494C16.4994 5.02814 16.379 4.21413 16.069 3.465C15.8212 2.86664 15.4578 2.32298 14.9998 1.86509C14.5418 1.40719 13.998 1.04403 13.3996 0.796357C12.8012 0.548683 12.1598 0.421349 11.5121 0.421631C10.8645 0.421913 10.2232 0.549806 9.62501 0.798001C9.02675 1.04558 8.48311 1.40858 8.02515 1.86626C7.56719 2.32395 7.20386 2.86737 6.95593 3.46548C6.70799 4.06359 6.5803 4.70469 6.58014 5.35215C6.57998 5.99961 6.70736 6.64077 6.95501 7.239C7.32866 8.13975 7.96106 8.90946 8.77221 9.45076C9.58336 9.99207 10.5368 10.2806 11.512 10.28ZM79.445 1.628C80.205 1.628 80.829 1.845 81.317 2.279C81.805 2.713 82.049 3.283 82.049 3.989V28.324C82.049 29.057 81.819 29.64 81.357 30.074C80.897 30.508 80.287 30.725 79.527 30.725C78.767 30.725 78.157 30.508 77.695 30.075C77.235 29.64 77.003 29.057 77.003 28.325V27.307C76.406 28.419 75.538 29.287 74.398 29.911C73.286 30.535 72.011 30.847 70.573 30.847C68.863 30.847 67.331 30.413 65.975 29.545C64.645 28.677 63.601 27.456 62.841 25.882C62.108 24.282 61.742 22.452 61.742 20.389C61.742 18.327 62.108 16.523 62.842 14.976C63.602 13.43 64.645 12.236 65.975 11.396C67.305 10.554 68.837 10.133 70.573 10.133C72.011 10.133 73.286 10.433 74.399 11.029C75.4835 11.5988 76.3752 12.4766 76.962 13.552V3.907C76.962 3.229 77.179 2.687 77.613 2.279C78.075 1.845 78.685 1.629 79.445 1.629V1.628ZM71.916 26.9C73.544 26.9 74.792 26.344 75.66 25.231C76.555 24.119 77.003 22.531 77.003 20.471C77.003 18.408 76.555 16.834 75.66 15.751C74.792 14.637 73.558 14.081 71.957 14.081C70.329 14.081 69.067 14.623 68.172 15.709C67.277 16.794 66.829 18.354 66.829 20.389C66.829 22.451 67.277 24.051 68.172 25.191C69.067 26.331 70.315 26.901 71.916 26.901V26.9ZM96.357 30.847C94.323 30.847 92.532 30.427 90.987 29.587C89.467 28.745 88.287 27.538 87.445 25.964C86.605 24.39 86.183 22.559 86.183 20.47C86.183 18.381 86.603 16.563 87.445 15.017C88.286 13.443 89.466 12.237 90.985 11.395C92.532 10.555 94.323 10.133 96.357 10.133C98.392 10.133 100.169 10.553 101.688 11.395C103.211 12.2116 104.447 13.4758 105.229 15.017C106.07 16.563 106.491 18.381 106.491 20.47C106.491 22.56 106.07 24.39 105.229 25.964C104.447 27.5051 103.211 28.7693 101.688 29.586C100.169 30.426 98.392 30.847 96.358 30.847H96.357ZM96.317 26.9C97.972 26.9 99.233 26.357 100.101 25.272C100.97 24.187 101.404 22.586 101.404 20.47C101.404 18.381 100.97 16.794 100.101 15.71C99.233 14.596 97.985 14.04 96.357 14.04C94.73 14.04 93.467 14.596 92.573 15.71C91.705 16.794 91.27 18.381 91.27 20.47C91.27 22.586 91.704 24.187 92.573 25.272C93.441 26.357 94.689 26.9 96.317 26.9ZM127.538 10.215C128.298 10.215 128.908 10.432 129.369 10.865C129.831 11.3 130.061 11.883 130.061 12.615V28.69C130.061 31.81 129.193 34.17 127.457 35.772C125.72 37.372 123.157 38.172 119.765 38.172C116.808 38.172 114.339 37.617 112.359 36.504C111.355 35.907 110.853 35.188 110.853 34.347C110.853 33.75 110.989 33.277 111.26 32.923C111.558 32.57 111.938 32.393 112.399 32.393C112.644 32.393 112.942 32.448 113.295 32.557C113.647 32.692 114.014 32.842 114.393 33.004C115.243 33.366 116.113 33.678 116.998 33.94C117.785 34.157 118.68 34.266 119.684 34.266C123.238 34.266 125.015 32.53 125.015 29.056V26.452C124.418 27.565 123.55 28.432 122.411 29.057C121.271 29.654 119.969 29.952 118.504 29.952C116.767 29.952 115.221 29.545 113.864 28.732C112.535 27.89 111.491 26.724 110.731 25.232C109.971 23.739 109.591 22.017 109.591 20.063C109.591 18.11 109.958 16.387 110.69 14.895C111.45 13.375 112.508 12.209 113.864 11.395C115.221 10.555 116.767 10.133 118.504 10.133C119.969 10.133 121.271 10.445 122.411 11.069C123.521 11.637 124.43 12.532 125.015 13.633V12.575C125.015 11.87 125.246 11.3 125.707 10.865C126.168 10.432 126.779 10.215 127.538 10.215ZM119.847 26.005C121.475 26.005 122.736 25.475 123.631 24.418C124.554 23.359 125.015 21.908 125.015 20.063C125.015 18.191 124.554 16.726 123.631 15.668C122.736 14.61 121.475 14.081 119.847 14.081C118.246 14.081 116.984 14.611 116.062 15.668C115.14 16.726 114.678 18.191 114.678 20.063C114.678 21.908 115.14 23.359 116.062 24.418C116.984 25.476 118.246 26.005 119.847 26.005ZM142.533 30.847C139.576 30.847 137.189 30.264 135.371 29.097C134.503 28.582 134.069 27.849 134.069 26.9C134.069 26.357 134.218 25.923 134.516 25.598C134.815 25.245 135.181 25.068 135.615 25.068C136.076 25.068 136.714 25.286 137.528 25.72C138.396 26.127 139.183 26.44 139.888 26.656C140.621 26.873 141.543 26.981 142.655 26.981C143.795 26.981 144.677 26.791 145.301 26.411C145.952 26.031 146.277 25.503 146.277 24.824C146.277 24.364 146.142 23.997 145.87 23.726C145.626 23.454 145.165 23.21 144.487 22.993C143.835 22.749 142.832 22.478 141.475 22.179C139.061 21.691 137.324 20.999 136.266 20.104C135.235 19.209 134.72 17.974 134.72 16.401C134.72 15.207 135.072 14.135 135.778 13.185C136.483 12.209 137.446 11.463 138.667 10.947C139.915 10.405 141.326 10.133 142.899 10.133C144.039 10.133 145.138 10.283 146.196 10.581C147.205 10.8311 148.167 11.2432 149.045 11.801C149.913 12.344 150.347 13.063 150.347 13.959C150.347 14.501 150.198 14.963 149.899 15.342C149.601 15.695 149.234 15.872 148.8 15.872C148.502 15.872 148.203 15.817 147.905 15.709C147.548 15.5272 147.195 15.3372 146.847 15.139C146.06 14.732 145.382 14.434 144.812 14.244C144.242 14.027 143.537 13.918 142.696 13.918C141.692 13.918 140.892 14.122 140.295 14.528C139.725 14.935 139.44 15.492 139.44 16.198C139.44 16.875 139.739 17.391 140.336 17.743C140.933 18.096 142.086 18.449 143.795 18.803C145.613 19.183 147.037 19.615 148.068 20.104C149.099 20.592 149.831 21.204 150.265 21.935C150.727 22.668 150.957 23.605 150.957 24.743C150.957 26.588 150.184 28.067 148.638 29.179C147.118 30.291 145.083 30.847 142.533 30.847Z" fill="#8877FF"/>
</svg>
