<svg width="165" height="38" viewBox="0 0 165 38" fill="none" xmlns="http://www.w3.org/2000/svg">
<g clip-path="url(#clip0_11_54)">
<path d="M2.704 29.072C1.887 29.072 1.225 28.82 0.718 28.316C0.24 27.812 0 27.154 0 26.342V1.772C0 0.96 0.225 0.33 0.676 -0.118C1.155 -0.566 1.803 -0.79 2.62 -0.79H17.452C19.17 -0.79 20.029 -0.0619999 20.029 1.394C20.029 2.822 19.17 3.536 17.452 3.536H5.367V11.6H16.607C18.325 11.6 19.184 12.328 19.184 13.784C19.184 15.212 18.325 15.926 16.607 15.926H5.367V26.342C5.367 27.154 5.127 27.812 4.648 28.316C4.169 28.82 3.521 29.072 2.704 29.072ZM27.781 29.072C27.021 29.072 26.387 28.862 25.88 28.442C25.4 27.994 25.162 27.364 25.162 26.552V1.478C25.162 0.666 25.401 0.05 25.88 -0.37C26.387 -0.79 27.02 -1 27.781 -1C28.542 -1 29.176 -0.79 29.683 -0.37C30.19 0.05 30.443 0.666 30.443 1.478V26.552C30.443 27.364 30.19 27.994 29.683 28.442C29.176 28.862 28.542 29.072 27.781 29.072ZM52.244 23.192C52.722 23.192 53.103 23.374 53.384 23.738C53.694 24.102 53.849 24.592 53.849 25.208C53.849 26.076 53.329 26.804 52.286 27.392C51.328 27.924 50.243 28.358 49.032 28.694C47.821 29.002 46.666 29.156 45.567 29.156C42.243 29.156 39.609 28.204 37.665 26.3C35.721 24.396 34.75 21.792 34.75 18.488C34.75 16.388 35.172 14.526 36.017 12.902C36.862 11.278 38.046 10.018 39.567 9.122C41.117 8.226 42.863 7.778 44.807 7.778C46.666 7.778 48.286 8.184 49.666 8.996C51.046 9.808 52.116 10.956 52.878 12.44C53.638 13.924 54.018 15.674 54.018 17.69C54.018 18.894 53.483 19.496 52.413 19.496H39.947C40.117 21.428 40.665 22.856 41.595 23.78C42.525 24.676 43.877 25.124 45.652 25.124C46.553 25.124 47.342 25.012 48.018 24.788C48.8234 24.5247 49.6133 24.2162 50.384 23.864C51.23 23.416 51.849 23.192 52.244 23.192ZM44.932 11.474C43.496 11.474 42.341 11.922 41.467 12.818C40.622 13.714 40.115 15.002 39.947 16.682H49.496C49.44 14.974 49.017 13.686 48.228 12.818C47.44 11.922 46.341 11.474 44.932 11.474ZM75.842 24.956C76.35 25.46 76.603 26.034 76.603 26.678C76.603 27.294 76.363 27.854 75.885 28.358C75.406 28.834 74.843 29.072 74.195 29.072C73.49 29.072 72.885 28.778 72.378 28.19L66.419 21.638L60.461 28.19C59.926 28.75 59.321 29.03 58.644 29.03C58.024 29.03 57.475 28.792 56.996 28.316C56.517 27.84 56.278 27.294 56.278 26.678C56.278 26.034 56.532 25.46 57.038 24.956L63.208 18.278L57.377 11.978C56.87 11.474 56.617 10.9 56.617 10.256C56.617 9.612 56.856 9.066 57.335 8.618C57.813 8.142 58.363 7.904 58.983 7.904C59.659 7.904 60.264 8.184 60.8 8.744L66.42 14.876L72.04 8.744C72.575 8.184 73.18 7.904 73.857 7.904C74.504 7.904 75.054 8.142 75.505 8.618C75.984 9.066 76.223 9.612 76.223 10.256C76.223 10.9 75.969 11.474 75.463 11.978L69.631 18.278L75.843 24.956H75.842ZM99.22 13.532C100.939 14.008 102.263 14.876 103.192 16.136C104.15 17.396 104.629 18.936 104.629 20.756C104.629 23.276 103.714 25.25 101.882 26.678C100.08 28.106 97.586 28.82 94.403 28.82H83.501C82.684 28.82 82.036 28.596 81.557 28.148C81.107 27.7 80.881 27.07 80.881 26.258V1.772C80.881 0.96 81.107 0.33 81.557 -0.118C82.037 -0.566 82.684 -0.79 83.501 -0.79H93.98C97.078 -0.79 99.501 -0.104 101.248 1.268C103.022 2.612 103.91 4.502 103.91 6.938C103.91 8.506 103.487 9.864 102.642 11.012C101.825 12.16 100.684 13 99.219 13.532H99.22ZM86.206 11.684H93.093C96.84 11.684 98.713 10.298 98.713 7.526C98.713 6.126 98.248 5.09 97.319 4.418C96.389 3.746 94.981 3.41 93.093 3.41H86.205V11.684H86.206ZM93.812 24.62C95.784 24.62 97.22 24.27 98.122 23.57C99.023 22.87 99.474 21.778 99.474 20.294C99.474 18.81 99.009 17.704 98.079 16.976C97.178 16.248 95.755 15.884 93.812 15.884H86.206V24.62H93.812ZM111.881 29.072C111.12 29.072 110.487 28.862 109.98 28.442C109.501 27.994 109.261 27.364 109.261 26.552V1.478C109.261 0.666 109.501 0.05 109.98 -0.37C110.487 -0.79 111.12 -1 111.881 -1C112.642 -1 113.276 -0.79 113.783 -0.37C114.29 0.05 114.543 0.666 114.543 1.478V26.552C114.543 27.364 114.29 27.994 113.783 28.442C113.276 28.862 112.642 29.072 111.881 29.072ZM129.413 29.156C127.301 29.156 125.441 28.722 123.836 27.854C122.258 26.986 121.033 25.74 120.159 24.116C119.286 22.492 118.849 20.602 118.849 18.446C118.849 16.29 119.286 14.414 120.159 12.818C121.033 11.194 122.258 9.948 123.836 9.08C125.441 8.212 127.301 7.778 129.413 7.778C131.526 7.778 133.371 8.212 134.949 9.08C136.528 9.92074 137.811 11.2254 138.625 12.818C139.498 14.414 139.935 16.29 139.935 18.446C139.935 20.602 139.498 22.492 138.625 24.116C137.811 25.7086 136.528 27.0133 134.949 27.854C133.371 28.722 131.526 29.156 129.413 29.156ZM129.371 25.082C131.089 25.082 132.399 24.522 133.301 23.402C134.202 22.282 134.653 20.63 134.653 18.446C134.653 16.29 134.202 14.652 133.301 13.532C132.399 12.384 131.104 11.81 129.413 11.81C127.723 11.81 126.413 12.384 125.484 13.532C124.582 14.652 124.131 16.29 124.131 18.446C124.131 20.63 124.582 22.282 125.484 23.402C126.385 24.522 127.681 25.082 129.371 25.082ZM161.79 7.862C162.578 7.862 163.212 8.086 163.691 8.534C164.17 8.982 164.409 9.584 164.409 10.34V26.93C164.409 30.15 163.508 32.586 161.705 34.238C159.902 35.89 157.24 36.716 153.719 36.716C150.648 36.716 148.084 36.142 146.028 34.994C144.986 34.378 144.465 33.636 144.465 32.768C144.465 32.152 144.605 31.662 144.887 31.298C145.197 30.934 145.591 30.752 146.07 30.752C146.324 30.752 146.634 30.808 147 30.92C147.366 31.06 147.746 31.214 148.141 31.382C149.155 31.802 150.056 32.124 150.845 32.348C151.662 32.572 152.592 32.684 153.634 32.684C157.324 32.684 159.17 30.892 159.17 27.308V24.62C158.55 25.768 157.648 26.664 156.465 27.308C155.282 27.924 153.93 28.232 152.409 28.232C150.606 28.232 149 27.812 147.591 26.972C146.211 26.104 145.127 24.9 144.338 23.36C143.549 21.82 143.155 20.042 143.155 18.026C143.155 16.01 143.535 14.232 144.296 12.692C145.084 11.124 146.183 9.92 147.591 9.08C149 8.212 150.606 7.778 152.409 7.778C153.93 7.778 155.282 8.1 156.465 8.744C157.616 9.32846 158.56 10.252 159.17 11.39V10.298C159.17 9.57 159.409 8.982 159.888 8.534C160.367 8.086 161.001 7.862 161.79 7.862ZM153.803 24.158C155.493 24.158 156.803 23.612 157.733 22.52C158.691 21.428 159.17 19.93 159.17 18.026C159.17 16.094 158.691 14.582 157.733 13.49C156.803 12.398 155.493 11.852 153.803 11.852C152.141 11.852 150.831 12.398 149.873 13.49C148.916 14.582 148.437 16.094 148.437 18.026C148.437 19.93 148.916 21.428 149.873 22.52C150.831 23.612 152.141 24.158 153.803 24.158Z" fill="#8877FF"/>
</g>
<defs>
<clipPath id="clip0_11_54">
<rect width="165" height="38" fill="white"/>
</clipPath>
</defs>
</svg>
