<svg width="149" height="36" viewBox="0 0 149 36" fill="none" xmlns="http://www.w3.org/2000/svg">
<path d="M48.953 35.52V0H39.916L21.02 27.408L17.83 23.424C23.533 22.56 26.722 17.568 26.722 12.24C26.722 7.152 23.92 2.88 20.15 1.248C18.267 0.432 15.464 0 11.743 0H0V35.52H8.747V24.048H8.843L17.107 35.52H26.337L29.477 30.384H39.82V35.52H48.953ZM8.746 17.856V7.968H12.226C15.656 7.968 17.976 9.696 17.976 12.768C17.976 16.032 15.801 17.856 12.176 17.856H8.746ZM39.818 23.184H33.826L39.722 13.344H39.818V23.184ZM85.604 35.52V0H76.858L77.244 22.464L63.327 0H55.45V35.52H64.197L63.955 13.824L77.68 35.52H85.605H85.604ZM111.98 35.52V27.552H100.865V21.456H111.641V13.488H100.865V7.968H111.98V0H92.118V35.52H111.98ZM148.285 35.52L135.673 17.712L147.512 0H137.944L127.844 15.984H127.747V0H118.614V35.52H127.747V20.16H127.844L137.606 35.52H148.285Z" fill="#8877FF"/>
</svg>
