<svg width="200" height="49" viewBox="0 0 200 49" fill="none" xmlns="http://www.w3.org/2000/svg">
<g clip-path="url(#clip0_11_64)">
<path d="M54.381 44.0141C51.061 44.0141 48.516 43.4461 46.745 42.3101C45.005 41.1421 44.136 39.4371 44.136 37.1961C44.136 36.0601 44.516 35.1281 45.274 34.4021C46.065 33.6451 47.077 33.2661 48.31 33.2661C49.037 33.2981 49.59 33.4861 49.97 33.8341C50.35 34.1501 50.54 34.4501 50.54 34.7341C50.54 34.7651 50.381 34.8761 50.065 35.0651C49.749 35.2551 49.465 35.5391 49.211 35.9171C48.958 36.2971 48.831 36.8171 48.831 37.4801C48.831 38.9641 49.275 40.1161 50.161 40.9371C51.077 41.7271 52.484 42.1201 54.381 42.1201C55.678 42.1201 56.816 41.8681 57.797 41.3631C58.777 40.8581 59.52 40.1951 60.027 39.3741C60.563 38.5221 60.832 37.6381 60.832 36.7221C60.832 35.5861 60.5 34.6081 59.836 33.7871C59.1914 32.9555 58.3852 32.263 57.466 31.7511C56.516 31.1831 55.219 30.5351 53.576 29.8091C51.678 28.9571 50.146 28.1841 48.976 27.4891C47.8003 26.7902 46.7822 25.8552 45.986 24.7431C45.164 23.5751 44.753 22.1391 44.753 20.4341C44.753 17.6881 45.685 15.6361 47.551 14.2791C49.449 12.9211 51.931 12.2431 54.998 12.2431C57.401 12.2431 59.488 12.7481 61.259 13.7581C63.062 14.7681 63.963 16.2521 63.963 18.2081C63.963 19.3451 63.567 20.2921 62.777 21.0501C62.018 21.7761 61.022 22.1401 59.789 22.1401C59.061 22.1071 58.509 21.9331 58.129 21.6181C57.749 21.2711 57.559 20.9551 57.559 20.6711C57.559 20.6391 57.765 20.5291 58.176 20.3391C58.6182 20.1505 59.0085 19.8583 59.314 19.4871C59.662 19.1081 59.836 18.5871 59.836 17.9251C59.836 16.7571 59.378 15.8411 58.461 15.1781C57.575 14.5151 56.437 14.1841 55.045 14.1841C53.117 14.1841 51.646 14.6421 50.635 15.5571C49.655 16.4411 49.165 17.5471 49.165 18.8721C49.165 19.9761 49.465 20.9081 50.065 21.6651C50.665 22.3911 51.63 23.1171 52.958 23.8431C54.1096 24.4486 55.2802 25.0172 56.468 25.5481C58.492 26.4631 60.089 27.3001 61.259 28.0581C62.4637 28.8188 63.4843 29.8377 64.247 31.0411C65.069 32.2711 65.481 33.8031 65.481 35.6331C65.481 37.2131 64.975 38.6481 63.963 39.9431C62.983 41.2051 61.638 42.1991 59.931 42.9251C58.255 43.6511 56.405 44.0151 54.381 44.0151V44.0141ZM78.394 43.6361C76.244 43.6361 74.536 42.9881 73.271 41.6941C72.006 40.4001 71.374 38.6951 71.374 36.5801V27.8201C71.374 27.0001 71.342 26.4001 71.279 26.0211C71.249 25.6431 71.059 25.3111 70.709 25.0271C70.362 24.7431 69.777 24.6011 68.955 24.6011C68.575 24.6011 68.291 24.5541 68.101 24.4591C67.911 24.3331 67.817 24.0641 67.817 23.6541C67.817 23.4641 67.88 23.2911 68.007 23.1341C68.133 22.9441 68.323 22.8341 68.577 22.8021C70.568 22.5171 72.277 22.1071 73.698 21.5701C74.141 21.4131 74.504 21.3181 74.789 21.2861H74.931C75.437 21.2861 75.691 21.5861 75.691 22.1861V36.5331C75.691 37.9851 76.149 39.1061 77.066 39.8951C77.9549 40.6425 79.0827 41.0456 80.244 41.0311C81.73 41.0311 82.994 40.6681 84.038 39.9421C85.082 39.2161 85.778 38.4901 86.125 37.7641V27.8211C86.125 27.0011 86.095 26.4011 86.031 26.0211C85.999 25.6431 85.809 25.3111 85.461 25.0271C85.113 24.7431 84.528 24.6011 83.706 24.6011C83.326 24.6011 83.042 24.5541 82.853 24.4591C82.663 24.3331 82.568 24.0641 82.568 23.6541C82.568 23.4641 82.631 23.2911 82.758 23.1341C82.884 22.9441 83.074 22.8341 83.328 22.8021C85.319 22.5171 87.028 22.1071 88.45 21.5701C88.892 21.4131 89.256 21.3181 89.54 21.2861H89.683C90.189 21.2861 90.443 21.5861 90.443 22.1861V38.5701C90.443 40.4331 91.691 41.3641 94.189 41.3641C94.726 41.3641 94.995 41.6641 94.995 42.2641C94.995 42.7051 94.726 42.9741 94.189 43.0681L86.552 43.5891C86.332 43.5891 86.204 43.5101 86.172 43.3531C86.142 43.2261 86.125 42.9901 86.125 42.6431V39.9901H86.031C85.305 40.672 84.5615 41.3349 83.801 41.9781C83.232 42.4201 82.489 42.7991 81.571 43.1151C80.686 43.4621 79.627 43.6351 78.394 43.6351V43.6361ZM97.59 43.2101C97.4795 43.2095 97.3706 43.1835 97.2717 43.1341C97.1729 43.0847 97.0867 43.0132 97.02 42.9251C96.8915 42.7286 96.8253 42.4979 96.83 42.2631C96.862 41.8531 96.957 41.6151 97.115 41.5531C97.275 41.4581 97.558 41.4101 97.969 41.4101C98.791 41.4101 99.376 41.2681 99.724 40.9841C100.072 40.7001 100.262 40.3681 100.293 39.9901C100.357 39.6101 100.388 39.0111 100.388 38.1901V27.3471C100.388 26.5271 100.357 25.9271 100.293 25.5471C100.262 25.1691 100.072 24.8371 99.724 24.5541C99.376 24.2701 98.791 24.1271 97.969 24.1271C97.589 24.1271 97.305 24.0801 97.116 23.9851C96.926 23.8591 96.831 23.5911 96.831 23.1801C96.831 22.9911 96.894 22.8171 97.021 22.6601C97.147 22.4701 97.337 22.3601 97.591 22.3281C99.645 22.0121 101.337 21.6021 102.665 21.0981C103.203 20.9391 103.566 20.8441 103.756 20.8131H103.898C104.404 20.8131 104.657 21.1131 104.657 21.7131V24.6481H104.799C105.906 23.5431 107.029 22.6751 108.167 22.0441C109.306 21.3811 110.333 21.0501 111.25 21.0501C112.294 21.0501 113.116 21.4441 113.717 22.2331C114.349 22.9911 114.665 23.8751 114.665 24.8851C114.674 25.7429 114.39 26.5781 113.859 27.2521C113.321 27.9471 112.578 28.2941 111.63 28.2941C111.217 28.3013 110.809 28.2036 110.444 28.0101C110.128 27.8201 109.954 27.6631 109.922 27.5371C109.954 27.4741 110.112 27.2841 110.396 26.9681C110.681 26.6211 110.823 26.2281 110.823 25.7851C110.823 25.2161 110.665 24.7591 110.349 24.4121C110.064 24.0641 109.669 23.8921 109.163 23.8921C108.626 23.8921 107.946 24.1591 107.124 24.6961C106.301 25.2011 105.495 25.8481 104.705 26.6371V38.1901C104.705 39.0111 104.736 39.6101 104.799 39.9901C104.863 40.3681 105.068 40.7001 105.416 40.9841C105.764 41.2681 106.349 41.4101 107.171 41.4101H107.456C107.709 41.4101 107.898 41.4581 108.025 41.5521C108.151 41.6471 108.23 41.8841 108.262 42.2621C108.262 42.5151 108.199 42.7361 108.072 42.9251C107.946 43.1151 107.756 43.2101 107.503 43.2101C105.844 43.12 104.184 43.0723 102.523 43.0671C100.878 43.0736 99.2329 43.121 97.59 43.2091V43.2101ZM171.257 43.6361C169.107 43.6361 167.194 43.1301 165.518 42.1201C163.842 41.0801 162.53 39.7211 161.581 38.0481C160.677 36.3927 160.204 34.5363 160.206 32.6501C160.206 30.2831 160.759 28.2311 161.866 26.4951C162.973 24.7271 164.38 23.3851 166.087 22.4701C167.795 21.5231 169.518 21.0501 171.257 21.0501C173.408 21.0501 175.321 21.5701 176.997 22.6121C178.641 23.5887 179.986 24.997 180.886 26.6841C181.823 28.3111 182.314 30.1566 182.309 32.0341C182.309 34.4021 181.74 36.4701 180.602 38.2381C179.495 39.9741 178.088 41.3151 176.38 42.2621C174.673 43.1781 172.965 43.6361 171.257 43.6361ZM171.257 41.8841C173.408 41.8841 174.973 40.9681 175.953 39.1371C176.965 37.3071 177.471 34.9391 177.471 32.0351C177.471 29.3201 176.949 27.1111 175.906 25.4051C174.894 23.6701 173.344 22.8021 171.257 22.8021C169.076 22.8021 167.495 23.7021 166.514 25.5021C165.534 27.3001 165.044 29.6521 165.044 32.5561C165.044 35.2701 165.55 37.5121 166.562 39.2791C167.574 41.0161 169.139 41.8841 171.257 41.8841ZM194.261 43.8721C192.711 43.8721 191.383 43.3041 190.276 42.1681C189.17 41.0311 188.616 39.4061 188.616 37.2911V23.3711L185.865 23.4651C185.773 23.4661 185.682 23.4451 185.599 23.4039C185.517 23.3627 185.445 23.3024 185.391 23.2281C185.267 23.0466 185.201 22.8319 185.201 22.6121C185.201 22.3281 185.249 22.0921 185.343 21.9021C185.47 21.6821 185.644 21.5551 185.865 21.5231C186.972 21.3031 187.826 20.9551 188.427 20.4831C189.059 19.9761 189.518 19.4401 189.802 18.8731C190.087 18.2731 190.435 17.3731 190.846 16.1731C191.004 15.7631 191.352 15.5571 191.889 15.5571C192.11 15.5571 192.332 15.6201 192.553 15.7471C192.774 15.8411 192.885 15.9991 192.885 16.2201L192.553 21.6181L198.103 21.2861H198.198C198.609 21.2861 198.814 21.5861 198.814 22.1861C198.814 22.5331 198.751 22.8661 198.624 23.1801C198.53 23.4651 198.403 23.6071 198.245 23.6071L192.933 23.4651V37.8601C192.933 38.9021 193.138 39.7701 193.549 40.4641C193.992 41.1591 194.703 41.5061 195.684 41.5061C196.664 41.5061 197.534 41.3321 198.292 40.9861C198.704 40.8271 198.956 40.7481 199.051 40.7481C199.273 40.7481 199.447 40.8431 199.573 41.0321C199.7 41.1901 199.826 41.4121 199.953 41.6951C199.987 41.7701 200.003 41.8501 200 41.9321C200 42.0581 199.905 42.2001 199.715 42.3581C198.798 42.9581 197.929 43.3531 197.107 43.5421C196.316 43.7621 195.367 43.8731 194.261 43.8731V43.8721ZM117.597 42.9251C117.723 43.1151 117.913 43.2091 118.166 43.2091C119.809 43.1189 121.454 43.0716 123.099 43.0671C125.218 43.0671 127.194 43.1151 129.028 43.2091C129.132 43.2112 129.235 43.1861 129.327 43.1363C129.418 43.0865 129.495 43.0137 129.55 42.9251C129.676 42.7351 129.739 42.5151 129.739 42.2621C129.708 41.8841 129.629 41.6471 129.502 41.5521C129.407 41.4581 129.218 41.4101 128.933 41.4101H128.648C127.605 41.4101 126.862 41.3311 126.419 41.1731C125.976 41.0161 125.676 40.7311 125.518 40.3211C125.36 39.8791 125.281 39.1691 125.281 38.1911V23.4631H130.309C130.419 23.4626 130.528 23.4368 130.627 23.3875C130.725 23.3383 130.811 23.267 130.878 23.1791C131.036 22.9901 131.115 22.7691 131.115 22.5161C131.083 22.1381 130.988 21.9011 130.83 21.8061C130.704 21.6801 130.498 21.6161 130.214 21.6161H125.281V18.7761C125.281 17.2611 125.344 15.9361 125.47 14.7981C125.588 13.6566 125.961 12.5562 126.561 11.5781C127.162 10.6001 128.095 10.1111 129.36 10.1111C129.505 10.1111 129.646 10.1191 129.782 10.1361C129.764 9.60562 129.799 9.07468 129.886 8.5511C129.821 8.5493 129.757 8.5483 129.692 8.5481C126.909 8.6111 124.743 9.6681 123.194 11.7211C121.676 13.7411 120.917 16.3771 120.917 19.6281V21.6181H118.071C117.66 21.6181 117.375 21.6641 117.217 21.7591C117.059 21.8221 116.964 22.0751 116.933 22.5161C116.933 22.7691 116.996 22.9901 117.122 23.1791C117.281 23.3691 117.486 23.4641 117.739 23.4641H120.917V38.1901C120.917 39.0431 120.885 39.6581 120.822 40.0371C120.791 40.3841 120.601 40.7001 120.253 40.9841C119.905 41.2681 119.32 41.4101 118.498 41.4101C118.087 41.4101 117.802 41.4581 117.644 41.5521C117.518 41.6151 117.439 41.8521 117.407 42.2621C117.407 42.5151 117.47 42.7361 117.597 42.9251Z" fill="#8877FF"/>
<path fill-rule="evenodd" clip-rule="evenodd" d="M142.952 9.865C142.952 10.5564 142.815 11.2409 142.55 11.8794C142.285 12.518 141.897 13.0979 141.407 13.586C140.418 14.5719 139.079 15.1255 137.682 15.1255C136.286 15.1255 134.947 14.5719 133.958 13.586C132.97 12.5995 132.414 11.2612 132.412 9.865C132.412 9.1735 132.549 8.48883 132.814 7.85017C133.079 7.21151 133.467 6.63139 133.957 6.143C134.946 5.15728 136.286 4.60379 137.682 4.60379C139.078 4.60379 140.418 5.15728 141.407 6.143C141.897 6.63122 142.285 7.21131 142.55 7.85001C142.816 8.48871 142.952 9.17346 142.952 9.865ZM137.682 12.495C138.38 12.4953 139.05 12.2184 139.544 11.7253C140.038 11.2322 140.316 10.5631 140.317 9.865C140.318 9.51903 140.25 9.17637 140.117 8.85678C139.985 8.5372 139.79 8.24702 139.545 8.003C139.3 7.75871 139.01 7.56506 138.69 7.43311C138.37 7.30116 138.028 7.2335 137.682 7.234C136.984 7.23426 136.315 7.51127 135.821 8.0043C135.327 8.49732 135.049 9.1661 135.047 9.864C135.048 10.5622 135.326 11.2313 135.82 11.7246C136.314 12.2179 136.984 12.495 137.682 12.495ZM135.372 17.414V42.784C135.372 43.067 135.452 43.288 135.61 43.446C135.768 43.636 135.989 43.73 136.274 43.73C136.558 43.73 136.795 43.604 136.985 43.352C137.175 43.131 137.349 42.799 137.507 42.357C137.665 41.915 137.807 41.568 137.934 41.315H138.171C140.226 42.862 142.661 43.635 145.475 43.635C147.373 43.635 149.159 43.13 150.835 42.12C152.511 41.11 153.839 39.737 154.82 38C155.831 36.233 156.337 34.292 156.337 32.177C156.337 30.03 155.895 28.121 155.009 26.447C154.156 24.743 152.97 23.417 151.452 22.47C149.934 21.523 148.242 21.05 146.377 21.05C145.238 21.05 144.084 21.286 142.914 21.76C141.776 22.202 140.748 22.88 139.831 23.796H139.689V17.5C138.269 17.8685 136.776 17.8388 135.372 17.414ZM149.697 39.421C148.527 41.158 146.977 42.026 145.049 42.026C144.037 42.026 143.136 41.805 142.345 41.363C141.586 40.921 140.969 40.4 140.495 39.8C140.052 39.169 139.784 38.6 139.689 38.096V25.596C141.048 24.143 142.724 23.417 144.717 23.417C146.962 23.417 148.653 24.301 149.792 26.069C150.93 27.805 151.499 29.904 151.499 32.366C151.499 35.302 150.899 37.654 149.697 39.421ZM12.7 0.366998C13.0354 0.127971 13.4371 -0.000488281 13.849 -0.000488281C14.2609 -0.000488281 14.6625 0.127971 14.998 0.366998C23.558 6.471 27.438 13.788 27.683 24.287C27.796 29.3 27.313 33.89 25.843 37.855C24.333 41.823 21.649 45.488 17.699 48.584C17.453 48.7751 17.1655 48.9055 16.8597 48.9646C16.5539 49.0237 16.2384 49.0098 15.939 48.924C14.729 48.577 14.523 47.145 13.849 46.253C13.175 47.145 12.971 48.576 11.759 48.923C11.4597 49.0086 11.1445 49.0224 10.8388 48.9633C10.5332 48.9043 10.2458 48.774 9.99998 48.583C6.04998 45.488 3.36598 41.823 1.85699 37.855C0.386985 33.89 -0.0970149 29.3 0.0169851 24.287C0.259985 13.788 4.13998 6.47 12.7 0.366998ZM17.126 44.062C19.598 41.792 21.088 39.317 22.14 36.47C23.465 32.99 23.847 29.144 23.732 24.379C23.542 16.192 21.622 10.865 15.809 5.919V20.387C18.082 20.971 19.102 23.197 19.102 25.647C19.102 28.099 18.082 30.325 15.809 30.909V42.746C15.809 42.746 16.865 43.719 17.126 44.062ZM10.538 44.062C8.06598 41.792 6.61099 39.317 5.55799 36.47C4.23399 32.99 3.85198 29.144 3.96798 24.379C4.15798 16.209 6.06798 10.859 11.856 5.919V20.387C9.58298 20.971 8.56199 23.197 8.56199 25.647C8.56199 28.099 9.58198 30.325 11.856 30.909V42.746C11.856 42.746 10.79 43.731 10.538 44.062ZM13.832 23.017C13.1338 23.0165 12.4641 23.2932 11.9699 23.7864C11.4758 24.2796 11.1978 24.9489 11.197 25.647C11.1972 25.9928 11.2656 26.3351 11.3982 26.6545C11.5307 26.9738 11.7249 27.2639 11.9696 27.5082C12.2143 27.7525 12.5047 27.9463 12.8242 28.0783C13.1438 28.2104 13.4862 28.2783 13.832 28.278C14.5301 28.2785 15.1999 28.0018 15.694 27.5086C16.1882 27.0154 16.4662 26.3461 16.467 25.648C16.467 24.195 15.287 23.018 13.832 23.018V23.017Z" fill="#8877FF"/>
</g>
<defs>
<clipPath id="clip0_11_64">
<rect width="200" height="49" fill="white"/>
</clipPath>
</defs>
</svg>
