<svg width="196" height="34" viewBox="0 0 196 34" fill="none" xmlns="http://www.w3.org/2000/svg">
<path d="M21.644 32.9551C20.4706 32.9866 19.3082 32.7221 18.264 32.1861C17.2254 31.6538 16.3395 30.8657 15.69 29.8961C13.645 31.7749 10.9954 32.8603 8.22 32.9561C3.233 32.9561 0.53 29.4911 1.443 24.5261C2.137 20.7911 5.242 17.0491 6.11 14.0461C4.43 13.0371 1.936 12.3361 0.767 14.3961L0 13.9351C0.612 11.6771 2.091 10.1751 4.228 10.1751C6.365 10.1751 7.945 11.4251 9.982 10.2751H11.607C10.74 14.7721 8.548 18.3701 7.379 24.6681C6.667 28.5281 7.991 30.2821 10.229 30.2821C11.8822 30.0788 13.403 29.2748 14.502 28.0231C13.6095 25.8267 13.1596 23.4757 13.178 21.1051C13.178 15.6351 15.726 9.86907 20 9.86907C22.192 9.86907 23.817 11.3711 23.817 14.9341C23.817 18.4961 21.626 24.0111 18.831 27.4741C18.982 28.2991 19.421 29.0461 20.071 29.5871C20.721 30.1271 21.542 30.4271 22.393 30.4351C26.466 30.4351 29.315 24.4151 29.315 18.8471C29.315 13.2791 26.868 13.5301 27.078 11.6501C27.0969 11.4151 27.162 11.1862 27.2696 10.9765C27.3772 10.7668 27.5252 10.5804 27.705 10.4281C28.069 10.1181 28.543 9.96307 29.023 9.99507C30.293 9.99507 31.963 11.5781 31.963 18.0021C31.963 26.1881 27.543 32.9541 21.643 32.9541H21.644V32.9551ZM20.722 12.6951C19.452 12.6951 18.228 17.3101 18.073 22.0781C18.0137 23.098 18.032 24.1209 18.128 25.1381C20.0433 22.0189 21.212 18.4994 21.543 14.8541C21.534 13.2341 21.233 12.6941 20.721 12.6941L20.722 12.6951ZM40.329 32.7481C39.7965 32.8026 39.2585 32.7412 38.752 32.5681C38.2474 32.3953 37.7867 32.1145 37.402 31.7451C37.0197 31.3781 36.7233 30.9311 36.534 30.4361C36.3451 29.9432 36.2686 29.4143 36.31 28.8881C36.31 26.6841 39.215 15.6991 39.215 13.8911C39.215 13.0371 39.014 12.5331 38.247 12.5331C37.3912 12.6703 36.5942 13.0548 35.954 13.6391V12.0831C37.2835 10.877 38.9997 10.1849 40.794 10.1311C41.3287 10.082 41.8677 10.1494 42.3738 10.3285C42.88 10.5077 43.3413 10.7945 43.726 11.1691C44.108 11.5411 44.404 11.9911 44.592 12.4891C44.779 12.9851 44.855 13.5161 44.812 14.0441C44.812 16.2481 41.909 27.1881 41.909 28.9871C41.909 29.8421 42.109 30.3471 42.877 30.3471C43.7213 30.2064 44.5126 29.8425 45.169 29.2931V30.7951C43.8445 32.0093 42.1253 32.703 40.329 32.7481ZM43.89 1.00007C44.288 0.988066 44.684 1.06007 45.051 1.21407C45.417 1.36807 45.746 1.59807 46.012 1.88907C46.2789 2.17792 46.4785 2.52234 46.5965 2.89755C46.7144 3.27276 46.7477 3.66944 46.694 4.05907C46.5958 4.89097 46.1972 5.65838 45.573 6.21707C44.943 6.78107 44.133 7.10107 43.288 7.11807C42.8913 7.13019 42.4966 7.0571 42.1306 6.90375C41.7645 6.75039 41.4356 6.52033 41.166 6.22907C40.8991 5.94021 40.6995 5.59579 40.5816 5.22058C40.4636 4.84537 40.4303 4.44869 40.484 4.05907C40.582 3.22707 40.981 2.45907 41.605 1.90107C42.2345 1.33734 43.0451 1.01771 43.89 1.00007ZM55.196 28.0351C54.941 29.3931 55.096 30.3381 56.064 30.3381C56.9112 30.2076 57.7051 29.8429 58.356 29.2851L58.447 30.7961C57.1176 32.0025 55.4014 32.695 53.607 32.7491C50.447 32.7491 49.224 30.4911 49.69 27.6841L52.795 10.2761C53.827 4.46407 53.47 3.69907 50.31 3.69907L50.511 2.29607L60.036 1.05407L55.196 28.0341V28.0351ZM81.982 27.9891C81.726 29.3491 81.826 30.3471 82.849 30.3471C83.6981 30.1884 84.4896 29.8063 85.142 29.2401V30.7961C83.8212 32.016 82.0996 32.7107 80.302 32.7491C79.3927 32.815 78.4912 32.5421 77.771 31.9831C77.0565 31.4295 76.5772 30.6267 76.429 29.7351C75.6625 30.7336 74.6786 31.5444 73.552 32.1061C72.4197 32.6714 71.1745 32.9743 69.909 32.9921C63.854 32.9921 61.306 27.7291 62.475 21.4041C63.644 15.0801 69.095 9.91607 75.26 9.91607C76.7175 9.88553 78.1591 10.2226 79.452 10.8961L79.607 10.0961C80.813 3.90607 80.256 3.69907 77.096 3.69907L77.251 2.29607L86.821 1.05407L81.981 27.9901H81.982V27.9891ZM75.415 12.1831C71.899 12.1831 69.562 16.2941 68.639 21.3591C67.671 26.6761 68.283 30.3561 71.589 30.3561C73.826 30.3561 76.374 27.6561 77.141 23.5361L79.023 13.1001C77.9348 12.4506 76.6813 12.1317 75.415 12.1821V12.1831ZM98.073 33.0001C90.995 33.0001 89.059 27.9801 89.927 23.1671L92.237 10.2771C93.306 4.45707 92.95 3.65407 89.79 3.65407L89.99 2.25107L99.543 1.05407L97.607 11.9851C99.1008 10.7089 100.986 9.98202 102.95 9.92507C109.114 9.92507 112.009 15.0891 110.895 21.4131C109.781 27.7371 104.11 33.0001 98.073 33.0001ZM101.379 12.3101C100.352 12.3298 99.3577 12.67 98.534 13.2831C97.7166 13.8916 97.1139 14.7444 96.813 15.7181L95.388 23.8151C94.52 28.6281 96.256 30.5891 98.448 30.5891C101.653 30.5891 103.644 27.0811 104.712 21.3141C105.662 16.1501 104.795 12.3361 101.37 12.3361L101.379 12.3091V12.3101ZM120.548 24.3281C120.548 28.1881 122.429 30.2481 126.027 30.2481C127.854 30.2481 130.511 28.9981 132.192 27.3421L132.904 28.9431C131.693 30.206 130.242 31.215 128.637 31.9111C127.025 32.6099 125.291 32.9831 123.534 33.0091C118.192 33.0091 114.575 29.0961 114.575 23.7791C114.575 15.9071 121.196 9.93407 127.562 9.93407C131.434 9.93407 133.616 12.0391 133.616 14.4951C133.571 18.3091 129.9 22.5921 120.548 24.3281ZM127.114 12.2381C124.21 12.2381 121.416 16.4021 120.648 22.3681C126.502 20.9631 128.995 17.0501 129.05 14.5401C129.041 13.1371 128.374 12.2371 127.105 12.2371H127.114V12.2381ZM154.393 32.7491C153.484 32.8149 152.582 32.5421 151.862 31.9831C151.148 31.4293 150.669 30.6265 150.521 29.7351C149.783 30.7333 148.822 31.5458 147.715 32.1081C146.603 32.6741 145.376 32.9763 144.128 32.9911C138.174 32.9911 135.626 27.7291 136.822 21.4041C138.018 15.0801 143.379 9.92407 149.562 9.92407C150.872 9.91749 152.17 10.1749 153.379 10.6811H159.187L156.073 27.9891C155.817 29.3491 155.918 30.3471 156.941 30.3471C157.79 30.1882 158.581 29.8061 159.233 29.2401V30.7961C157.912 32.016 156.191 32.7106 154.393 32.7491ZM149.708 12.1831C146.292 12.1831 143.9 16.2941 142.986 21.3591C142.018 26.6761 142.685 30.3561 145.726 30.3561C148.064 30.3561 150.566 27.5491 151.279 23.5361L153.16 13.1001C152.133 12.4505 150.931 12.1303 149.717 12.1821H149.708V12.1831ZM177.005 15.8441C175.626 15.8441 175.269 14.7921 174.868 13.6851C174.731 13.1255 174.402 12.6316 173.939 12.2891C173.472 11.9438 172.9 11.7697 172.32 11.7961C171.566 11.7561 170.824 11.9961 170.237 12.4701C169.654 12.9393 169.27 13.6109 169.16 14.3511C169.005 15.7111 170.027 16.8611 171.963 18.5161L174.557 20.6211C175.521 21.3389 176.269 22.3074 176.721 23.4211C177.17 24.5311 177.303 25.7411 177.105 26.9191C176.447 30.6791 173.288 32.9911 169.059 32.9911C163.963 32.9911 160.712 30.0311 161.068 28.0251C161.152 27.4957 161.422 27.0139 161.831 26.6671C162.241 26.3171 162.764 26.1231 163.306 26.1181C164.63 26.1181 165.132 27.1181 165.543 28.4211C165.807 29.1711 166.314 29.8131 166.986 30.2491C167.66 30.6854 168.459 30.8901 169.26 30.8321C170.052 30.8696 170.829 30.614 171.444 30.1141C172.053 29.6183 172.454 28.9115 172.566 28.1341C172.767 26.3341 171.653 25.2281 169.562 23.3651L167.014 21.1611C166.118 20.4879 165.418 19.588 164.986 18.5541C164.556 17.5255 164.411 16.4001 164.566 15.2961C165.023 12.8861 167.306 9.89807 172.557 9.89807C176.63 9.89807 179.178 12.1561 178.95 13.9641C178.924 14.4631 178.71 14.9331 178.35 15.2791C177.99 15.6271 177.509 15.8291 177.005 15.8441ZM195.644 12.6961H190.703L188.311 26.0281C187.799 28.7901 188.21 30.0411 189.735 30.0411C190.548 30.0411 191.826 29.5911 193.653 27.7381L193.753 29.6901C192.923 30.6576 191.895 31.4353 190.738 31.9701C189.576 32.5078 188.312 32.7914 187.032 32.8021C183.571 32.8021 181.836 30.3921 182.658 25.9291L185.05 12.6961H181.187L181.489 10.6361H185.388L186.411 4.67107H192.11L191.041 10.6351H195.982L195.644 12.6951V12.6961Z" fill="#8877FF"/>
</svg>
